<?xml version="1.0" encoding="utf-8"?>
<!-- Generator: Adobe Illustrator 27.2.0, SVG Export Plug-In . SVG Version: 6.00 Build 0)  -->
<svg version="1.1" id="레이어_1" xmlns="http://www.w3.org/2000/svg" xmlns:xlink="http://www.w3.org/1999/xlink" x="0px"
	 y="0px" viewBox="0 0 100 100" style="enable-background:new 0 0 100 100;" xml:space="preserve">
<style type="text/css">
	.st0{fill:url(#SVGID_1_);}
	.st1{fill:url(#SVGID_00000059988367724734253790000012551156604168028855_);}
	.st2{fill:url(#SVGID_00000004542818852341877970000016638153169435497382_);}
	.st3{fill:url(#SVGID_00000027599368078975991510000014702768318797949316_);}
	.st4{fill:url(#SVGID_00000000916306944769661520000018403062152197430176_);}
	.st5{fill:url(#SVGID_00000070109947299117596320000000945251865475445179_);}
	.st6{fill:url(#SVGID_00000146475465233836926470000008631001330809873081_);}
	.st7{fill:url(#SVGID_00000085217662518871029270000017162533247270894482_);}
	.st8{fill:url(#SVGID_00000175316784023808846100000003871932102476637588_);}
	.st9{fill:url(#SVGID_00000023247880695387085210000007088091590811932319_);}
	.st10{fill:url(#SVGID_00000091703918610111995060000002922427792338332847_);}
	.st11{fill:url(#SVGID_00000041995284009103369650000004321405084658547097_);}
	.st12{fill:url(#SVGID_00000025433017985443480810000002910183341610107307_);}
	.st13{fill:url(#SVGID_00000072981757833674934750000004126986568865553325_);}
	.st14{fill:url(#SVGID_00000137100237992232876920000017072060854196544388_);}
	.st15{fill:url(#SVGID_00000143577485570539431620000005706067161490637738_);}
	.st16{fill:url(#SVGID_00000012442314305032722090000017995410715340828863_);}
	.st17{fill:url(#SVGID_00000129906418675207150930000007574251744507361454_);}
	.st18{fill:url(#SVGID_00000042731451348094406350000012858792260858724236_);}
	.st19{fill:url(#SVGID_00000042722734851434766660000014181527778995728522_);}
	.st20{fill:url(#SVGID_00000014630443235503644640000014277056640321398657_);}
	.st21{fill:url(#SVGID_00000020379047173252703760000010062723841461096620_);}
	.st22{fill:url(#SVGID_00000123411024343754795990000010352268316900724357_);}
	.st23{fill:url(#SVGID_00000155122948771099268020000017096935820977131188_);}
	.st24{fill:url(#SVGID_00000047739617698133864300000001821037836246488485_);}
	.st25{fill:url(#SVGID_00000170239146991347832590000002763339386405856395_);}
	.st26{fill:url(#SVGID_00000072265309644472091200000001895686263605483436_);}
	.st27{fill:url(#SVGID_00000121270346527259056070000017894256206284319666_);}
	.st28{fill:url(#SVGID_00000085234915421287074080000017515896817840877502_);}
	.st29{fill:url(#SVGID_00000159459433840568591830000016759946208317360779_);}
</style>
<g>
	<g>
		<linearGradient id="SVGID_1_" gradientUnits="userSpaceOnUse" x1="-61.3263" y1="33.5566" x2="75.3065" y2="74.3346">
			<stop  offset="0" style="stop-color:#FFFFFF;stop-opacity:0"/>
			<stop  offset="1" style="stop-color:#FFFFFF"/>
		</linearGradient>
		<path class="st0" d="M74.7909,43.0294c6.3388,6.8159,2.1742,13.7955-2.4129,16.423
			c-6.1514,3.4625-21.0579,11.8461-24.5647,13.8159c-2.3004,1.2916-3.9668,2.5764-6.5433,3.1967c0,0,0,0-0.0034,0
			c-1.3495,0.3272-2.9513,0.4703-5.0268,0.334c-0.6058-0.0392-1.5533-0.1523-2.7536-0.3742
			C7.7281,71.6649-3.6284,41.8367,10.8462,21.0961c-0.0037-0.0268-0.0078-0.0537-0.0115-0.0805
			C4.9654,28.9344,1.4384,38.6936,1.2851,49.272c0,0.0022,0,0.0044-0.0001,0.0066c0.055,0.2267-0.0032,0.4666-0.0066,0.7005
			c0,0.0062-0.0002,0.0125-0.0002,0.0188c0,1.5541,0.0716,3.0945,0.2182,4.6111c2.3208,24.7487,23.1469,44.1128,48.5022,44.1128
			c0.1825,0,0.3636-0.0054,0.5456-0.0074c11.4102-0.1776,21.895-6.6202,27.1317-16.7804c7.9507-15.426,2.751-30.5285,1.1227-33.8266
			C77.6638,45.8103,76.2427,44.2153,74.7909,43.0294z"/>
	</g>
	
		<linearGradient id="SVGID_00000133508589596441930250000013322167286733013402_" gradientUnits="userSpaceOnUse" x1="29.5222" y1="37.3171" x2="29.5222" y2="37.3171">
		<stop  offset="0" style="stop-color:#191919;stop-opacity:0"/>
		<stop  offset="1" style="stop-color:#191919"/>
	</linearGradient>
	<path style="fill:url(#SVGID_00000133508589596441930250000013322167286733013402_);" d="M29.5222,37.3171"/>
	<g>
		
			<linearGradient id="SVGID_00000150099662112839607510000009040921844192916660_" gradientUnits="userSpaceOnUse" x1="112.7252" y1="-49.8833" x2="68.7697" y2="78.8057">
			<stop  offset="0" style="stop-color:#FFFFFF;stop-opacity:0"/>
			<stop  offset="1" style="stop-color:#FFFFFF"/>
		</linearGradient>
		<path style="fill:url(#SVGID_00000150099662112839607510000009040921844192916660_);" d="M88.8845,20.6447
			c-0.114-0.1506-0.2292-0.3001-0.3449-0.4494c0.0207,0.0271,0.0414,0.0542,0.0623,0.0812
			C88.6965,20.399,88.7911,20.5213,88.8845,20.6447z"/>
		
			<linearGradient id="SVGID_00000047060570300333474860000007893639082782861989_" gradientUnits="userSpaceOnUse" x1="114.503" y1="-49.2761" x2="70.5475" y2="79.4129">
			<stop  offset="0" style="stop-color:#FFFFFF;stop-opacity:0"/>
			<stop  offset="1" style="stop-color:#FFFFFF"/>
		</linearGradient>
		<path style="fill:url(#SVGID_00000047060570300333474860000007893639082782861989_);" d="M90.4174,22.7917
			c0.0058,0.0086,0.0117,0.0172,0.0175,0.0258c-0.2439-0.362-0.4923-0.7208-0.7456-1.0758c0.1706,0.239,0.3392,0.4792,0.5055,0.7213
			C90.2697,22.572,90.3431,22.6822,90.4174,22.7917z"/>
		
			<linearGradient id="SVGID_00000025416378473503077050000004134172311281639573_" gradientUnits="userSpaceOnUse" x1="113.7771" y1="-49.524" x2="69.8216" y2="79.165">
			<stop  offset="0" style="stop-color:#FFFFFF;stop-opacity:0"/>
			<stop  offset="1" style="stop-color:#FFFFFF"/>
		</linearGradient>
		<path style="fill:url(#SVGID_00000025416378473503077050000004134172311281639573_);" d="M89.6771,21.7243
			c-0.106-0.1484-0.2125-0.2965-0.3201-0.4437c0.0704,0.0973,0.1406,0.1947,0.2108,0.2921
			C89.6041,21.6234,89.6409,21.6736,89.6771,21.7243z"/>
		
			<linearGradient id="SVGID_00000073691019151654768150000000579272433549628304_" gradientUnits="userSpaceOnUse" x1="115.7369" y1="-48.8547" x2="71.7814" y2="79.8344">
			<stop  offset="0" style="stop-color:#FFFFFF;stop-opacity:0"/>
			<stop  offset="1" style="stop-color:#FFFFFF"/>
		</linearGradient>
		<path style="fill:url(#SVGID_00000073691019151654768150000000579272433549628304_);" d="M91.1391,23.8932
			c-0.1082-0.1701-0.2166-0.3399-0.3267-0.5085c0.0572,0.0883,0.1148,0.1762,0.1719,0.2647
			C91.0364,23.7303,91.0874,23.812,91.1391,23.8932z"/>
		
			<linearGradient id="SVGID_00000102523038027381220240000002086200881581010851_" gradientUnits="userSpaceOnUse" x1="116.5392" y1="-48.5806" x2="72.5837" y2="80.1084">
			<stop  offset="0" style="stop-color:#FFFFFF;stop-opacity:0"/>
			<stop  offset="1" style="stop-color:#FFFFFF"/>
		</linearGradient>
		<path style="fill:url(#SVGID_00000102523038027381220240000002086200881581010851_);" d="M91.6232,24.6639
			c-0.043-0.0705-0.0884-0.1394-0.1317-0.2097c0.0432,0.0696,0.0865,0.1391,0.1293,0.209
			C91.6216,24.6635,91.6224,24.6637,91.6232,24.6639z"/>
		
			<linearGradient id="SVGID_00000058573299446657797710000000599113903459555483_" gradientUnits="userSpaceOnUse" x1="110.7274" y1="-50.5657" x2="66.7719" y2="78.1233">
			<stop  offset="0" style="stop-color:#FFFFFF;stop-opacity:0"/>
			<stop  offset="1" style="stop-color:#FFFFFF"/>
		</linearGradient>
		<path style="fill:url(#SVGID_00000058573299446657797710000000599113903459555483_);" d="M87.4841,18.8812
			c-0.2241-0.2697-0.4511-0.5368-0.6808-0.8016c0.0627,0.0724,0.1256,0.1446,0.188,0.2173
			C87.1572,18.4902,87.3211,18.6853,87.4841,18.8812z"/>
		
			<linearGradient id="SVGID_00000120532560149252317740000006932836563151946892_" gradientUnits="userSpaceOnUse" x1="75.9684" y1="-62.4381" x2="32.0129" y2="66.2509">
			<stop  offset="0" style="stop-color:#FFFFFF;stop-opacity:0"/>
			<stop  offset="1" style="stop-color:#FFFFFF"/>
		</linearGradient>
		<path style="fill:url(#SVGID_00000120532560149252317740000006932836563151946892_);" d="M71.9106,9.2427
			c5.6972,1.201,10.8421,4.2489,14.6955,8.6108c-2.6147-2.9749-5.5835-5.631-8.8461-7.8958
			c-2.3054-1.6051-4.7569-3.0131-7.3306-4.2008c-0.0058-0.0026-0.0121-0.0046-0.0178-0.0072
			C64.2023,2.88,57.2875,1.2783,49.9979,1.2783c-0.4482,0-0.895,0.0063-1.3403,0.0183c-0.0542,0.0015-0.1082,0.0045-0.1624,0.0062
			c-0.3806,0.0116-0.7603,0.0266-1.1386,0.0468c-0.1126,0.006-0.2246,0.0144-0.3371,0.0211
			c-0.3194,0.0193-0.6384,0.0402-0.9562,0.0656c-0.1352,0.0108-0.2697,0.0237-0.4046,0.0356
			c-0.2948,0.026-0.5892,0.0536-0.8824,0.0849c-0.1444,0.0154-0.2885,0.0324-0.4325,0.049
			c-0.2828,0.0326-0.565,0.0672-0.8463,0.1047c-0.1486,0.0198-0.2968,0.0406-0.445,0.0617
			C42.7759,1.8116,42.5,1.8535,42.2247,1.8976c-0.1479,0.0237-0.2959,0.0477-0.4434,0.0727
			c-0.2766,0.047-0.5521,0.0968-0.827,0.1485c-0.1428,0.0268-0.2857,0.0532-0.4281,0.0812
			c-0.2829,0.0557-0.5645,0.1151-0.8457,0.1756c-0.1316,0.0284-0.2635,0.0557-0.3947,0.0851
			c-0.301,0.0675-0.6006,0.1392-0.8994,0.2123c-0.1092,0.0267-0.2188,0.0518-0.3277,0.0792
			c-0.3534,0.0889-0.7049,0.1826-1.0552,0.2793c-0.0526,0.0146-0.1058,0.0278-0.1583,0.0424
			c-0.8183,0.2289-1.6277,0.4787-2.4279,0.7486c-0.0795,0.0268-0.1581,0.0556-0.2373,0.0828
			c-0.3128,0.1073-0.6248,0.2165-0.9346,0.3299c-0.1181,0.0432-0.235,0.0886-0.3525,0.1327
			c-0.2697,0.1012-0.5391,0.2033-0.8066,0.3092c-0.133,0.0526-0.2649,0.107-0.3974,0.1607
			c-0.2506,0.1017-0.5006,0.2045-0.7492,0.3102c-0.1389,0.0591-0.2769,0.1195-0.415,0.1798c-0.241,0.1052-0.4811,0.2118-0.72,0.3207
			c-0.1396,0.0637-0.2788,0.1281-0.4178,0.193C29.151,5.9522,28.916,6.0645,28.682,6.1786
			c-0.1377,0.0671-0.2752,0.1344-0.4122,0.2027c-0.235,0.1172-0.4683,0.2369-0.7011,0.3578
			c-0.1323,0.0687-0.2648,0.137-0.3964,0.207c-0.2388,0.1268-0.4758,0.2567-0.7122,0.3874
			c-0.1225,0.0677-0.2454,0.1345-0.3673,0.2032c-0.2524,0.1424-0.5026,0.2883-0.7522,0.4351
			c-0.1027,0.0603-0.2062,0.1192-0.3083,0.1803c-0.3014,0.1802-0.6001,0.3643-0.8972,0.5508
			c-0.0481,0.0301-0.0969,0.0591-0.1449,0.0894c-0.3533,0.2235-0.7036,0.451-1.0505,0.6832
			c-0.0017,0.0011-0.0032,0.0022-0.0048,0.0033c-0.3365,0.2251-0.6695,0.4548-1,0.688c-0.0884,0.0624-0.1753,0.1268-0.2633,0.1898
			c-0.2428,0.1738-0.4849,0.3485-0.7243,0.5266c-0.1106,0.0822-0.2196,0.1663-0.3294,0.2494
			c-0.2141,0.1622-0.4277,0.3249-0.6391,0.4904c-0.1194,0.0936-0.2375,0.1887-0.356,0.2833
			c-0.1994,0.1593-0.3981,0.3192-0.5949,0.4815c-0.1218,0.1004-0.2427,0.2019-0.3634,0.3035
			c-0.1911,0.1606-0.3811,0.3225-0.5697,0.4859c-0.1211,0.1051-0.2416,0.2107-0.3617,0.3169
			c-0.1861,0.1645-0.3707,0.3306-0.5542,0.498c-0.118,0.1077-0.2358,0.2154-0.3528,0.3242
			c-0.1839,0.1711-0.3659,0.3441-0.5472,0.518c-0.1124,0.1077-0.2251,0.2152-0.3364,0.324
			c-0.1858,0.1816-0.3691,0.3656-0.552,0.5501c-0.1031,0.1041-0.207,0.2073-0.3092,0.3123
			c-0.1944,0.1998-0.3859,0.4024-0.5768,0.6054c-0.0873,0.0929-0.176,0.1845-0.2626,0.2781
			c-0.2326,0.2512-0.4618,0.5056-0.6891,0.7617c-0.0413,0.0464-0.0837,0.0919-0.1248,0.1385
			c-18.2514,20.72-7.0977,53.6025,20.0582,58.6207c1.2003,0.2218,2.1478,0.335,2.7536,0.3742
			c2.0755,0.1363,3.6772-0.0068,5.0268-0.334c-12.2312,0.9133-11.7439-10.9635-11.7439-10.9635l-0.0545-23.7877
			c0-0.3476,0.0136-4.5019,0.0136-4.8495c0-2.0516-0.0512-3.6533,0.0443-5.0915c0.1499-2.3209,0.6782-4.2089,2.4129-6.8704
			C34.3366,21.2208,46.7376,3.9357,71.9106,9.2427z"/>
		
			<linearGradient id="SVGID_00000165201351673121927410000009270352467040793763_" gradientUnits="userSpaceOnUse" x1="111.6491" y1="-50.2509" x2="67.6936" y2="78.4381">
			<stop  offset="0" style="stop-color:#FFFFFF;stop-opacity:0"/>
			<stop  offset="1" style="stop-color:#FFFFFF"/>
		</linearGradient>
		<path style="fill:url(#SVGID_00000165201351673121927410000009270352467040793763_);" d="M88.0597,19.5834
			c-0.1224-0.1529-0.2471-0.3039-0.3713-0.4554c0.0425,0.0524,0.0852,0.1047,0.128,0.1569
			C87.8973,19.3846,87.9789,19.4836,88.0597,19.5834z"/>
		
			<linearGradient id="SVGID_00000181071252703308503090000002024906899888919222_" gradientUnits="userSpaceOnUse" x1="112.1935" y1="-50.0649" x2="68.238" y2="78.6241">
			<stop  offset="0" style="stop-color:#FFFFFF;stop-opacity:0"/>
			<stop  offset="1" style="stop-color:#FFFFFF"/>
		</linearGradient>
		<path style="fill:url(#SVGID_00000181071252703308503090000002024906899888919222_);" d="M88.5065,20.1522
			c-0.1315-0.1692-0.2624-0.3387-0.3959-0.5062c-0.0168-0.021-0.0341-0.0417-0.051-0.0626c0.1619,0.2024,0.3212,0.4069,0.48,0.612
			C88.5287,20.181,88.5177,20.1665,88.5065,20.1522z"/>
		
			<linearGradient id="SVGID_00000104688658155174764650000000192076303761130635_" gradientUnits="userSpaceOnUse" x1="113.2571" y1="-49.7016" x2="69.3016" y2="78.9874">
			<stop  offset="0" style="stop-color:#FFFFFF;stop-opacity:0"/>
			<stop  offset="1" style="stop-color:#FFFFFF"/>
		</linearGradient>
		<path style="fill:url(#SVGID_00000104688658155174764650000000192076303761130635_);" d="M89.2765,21.1689
			c-0.1275-0.1732-0.2568-0.3454-0.3865-0.5169c-0.0018-0.0024-0.0037-0.0048-0.0055-0.0072
			c0.1592,0.2106,0.3167,0.4226,0.4725,0.6358C89.3302,21.2434,89.3037,21.2059,89.2765,21.1689z"/>
		
			<linearGradient id="SVGID_00000167358100366107765550000016941630385215062938_" gradientUnits="userSpaceOnUse" x1="111.284" y1="-50.3756" x2="67.3285" y2="78.3134">
			<stop  offset="0" style="stop-color:#FFFFFF;stop-opacity:0"/>
			<stop  offset="1" style="stop-color:#FFFFFF"/>
		</linearGradient>
		<path style="fill:url(#SVGID_00000167358100366107765550000016941630385215062938_);" d="M87.5728,18.9863
			c-0.0292-0.0353-0.0593-0.0699-0.0886-0.1051c0.0682,0.0821,0.1365,0.1642,0.2042,0.2469
			C87.6499,19.0807,87.6116,19.0333,87.5728,18.9863z"/>
		
			<linearGradient id="SVGID_00000068646173842676715330000012905971987258939023_" gradientUnits="userSpaceOnUse" x1="110.177" y1="-50.7537" x2="66.2215" y2="77.9353">
			<stop  offset="0" style="stop-color:#FFFFFF;stop-opacity:0"/>
			<stop  offset="1" style="stop-color:#FFFFFF"/>
		</linearGradient>
		<path style="fill:url(#SVGID_00000068646173842676715330000012905971987258939023_);" d="M86.6898,17.9486
			c-0.0194-0.0221-0.0384-0.0448-0.0579-0.0669c-0.0085-0.0096-0.0174-0.0186-0.0258-0.0282
			c0.066,0.0751,0.1315,0.1507,0.1972,0.2261C86.7654,18.036,86.7278,17.9921,86.6898,17.9486z"/>
		
			<linearGradient id="SVGID_00000092415837058273658270000009558147648876261767_" gradientUnits="userSpaceOnUse" x1="115.2571" y1="-49.0185" x2="71.3016" y2="79.6705">
			<stop  offset="0" style="stop-color:#FFFFFF;stop-opacity:0"/>
			<stop  offset="1" style="stop-color:#FFFFFF"/>
		</linearGradient>
		<path style="fill:url(#SVGID_00000092415837058273658270000009558147648876261767_);" d="M90.6499,23.1348
			c-0.0706-0.1066-0.1433-0.2115-0.215-0.3173c0.1268,0.1883,0.2531,0.3771,0.3774,0.5672
			C90.7582,23.3013,90.7047,23.2176,90.6499,23.1348z"/>
		
			<linearGradient id="SVGID_00000168084976867222802940000007688029288421045633_" gradientUnits="userSpaceOnUse" x1="116.2046" y1="-48.6949" x2="72.2491" y2="79.9941">
			<stop  offset="0" style="stop-color:#FFFFFF;stop-opacity:0"/>
			<stop  offset="1" style="stop-color:#FFFFFF"/>
		</linearGradient>
		<path style="fill:url(#SVGID_00000168084976867222802940000007688029288421045633_);" d="M91.3473,24.2212
			c-0.0686-0.1098-0.1387-0.2187-0.2083-0.328c0.1185,0.1864,0.2365,0.3731,0.3524,0.561
			C91.4433,24.3766,91.3957,24.2987,91.3473,24.2212z"/>
		
			<linearGradient id="SVGID_00000076562658881283433920000008550138654280161972_" gradientUnits="userSpaceOnUse" x1="113.9965" y1="-49.4491" x2="81.667" y2="45.2022">
			<stop  offset="0" style="stop-color:#FFFFFF;stop-opacity:0"/>
			<stop  offset="1" style="stop-color:#FFFFFF"/>
		</linearGradient>
		<path style="fill:url(#SVGID_00000076562658881283433920000008550138654280161972_);" d="M89.6789,21.7267
			c-0.0006-0.0008-0.0012-0.0016-0.0017-0.0024c0.0042,0.0058,0.0082,0.0116,0.0122,0.0174
			C89.6858,21.7367,89.6824,21.7317,89.6789,21.7267z"/>
		
			<linearGradient id="SVGID_00000150811593396800376710000001131826842017478573_" gradientUnits="userSpaceOnUse" x1="93.4191" y1="-56.4776" x2="49.4636" y2="72.2114">
			<stop  offset="0" style="stop-color:#FFFFFF;stop-opacity:0"/>
			<stop  offset="1" style="stop-color:#FFFFFF"/>
		</linearGradient>
		<path style="fill:url(#SVGID_00000150811593396800376710000001131826842017478573_);" d="M42.1898,98.0965
			c-0.9907-0.1599-1.9716-0.349-2.9413-0.5676C40.2183,97.7473,41.1989,97.937,42.1898,98.0965z"/>
		
			<linearGradient id="SVGID_00000103968765169908087610000006786068270015864732_" gradientUnits="userSpaceOnUse" x1="97.7096" y1="-55.0121" x2="53.7541" y2="73.6769">
			<stop  offset="0" style="stop-color:#FFFFFF;stop-opacity:0"/>
			<stop  offset="1" style="stop-color:#FFFFFF"/>
		</linearGradient>
		<path style="fill:url(#SVGID_00000103968765169908087610000006786068270015864732_);" d="M46.7237,98.611
			c-0.9672-0.0645-1.9268-0.1565-2.8778-0.2766C44.7968,98.4541,45.7563,98.5468,46.7237,98.611z"/>
	</g>
	<g>
		
			<linearGradient id="SVGID_00000168806393055995138640000003466365651453496210_" gradientUnits="userSpaceOnUse" x1="121.5517" y1="186.8756" x2="8.2207" y2="52.8907">
			<stop  offset="0" style="stop-color:#FFFFFF;stop-opacity:0"/>
			<stop  offset="1" style="stop-color:#FFFFFF"/>
		</linearGradient>
		<path style="fill:url(#SVGID_00000168806393055995138640000003466365651453496210_);" d="M47.0806,98.6323
			c-0.119-0.007-0.2382-0.0134-0.3569-0.0213C46.8424,98.6189,46.9616,98.6252,47.0806,98.6323z"/>
		
			<linearGradient id="SVGID_00000134932559084587985670000012697939435136080526_" gradientUnits="userSpaceOnUse" x1="119.0992" y1="188.9501" x2="5.7681" y2="54.9652">
			<stop  offset="0" style="stop-color:#FFFFFF;stop-opacity:0"/>
			<stop  offset="1" style="stop-color:#FFFFFF"/>
		</linearGradient>
		<path style="fill:url(#SVGID_00000134932559084587985670000012697939435136080526_);" d="M42.3302,98.1184
			c-0.0468-0.0074-0.0938-0.0144-0.1404-0.0219C42.2365,98.104,42.2834,98.111,42.3302,98.1184z"/>
		
			<linearGradient id="SVGID_00000129912341497572862680000000601818755362055850_" gradientUnits="userSpaceOnUse" x1="122.3742" y1="186.18" x2="9.0431" y2="52.1951">
			<stop  offset="0" style="stop-color:#FFFFFF;stop-opacity:0"/>
			<stop  offset="1" style="stop-color:#FFFFFF"/>
		</linearGradient>
		<path style="fill:url(#SVGID_00000129912341497572862680000000601818755362055850_);" d="M48.572,98.6989
			c-0.1334-0.0038-0.2663-0.0093-0.3995-0.0143C48.3057,98.6896,48.4386,98.6951,48.572,98.6989z"/>
		
			<linearGradient id="SVGID_00000084501795213373450280000012270987618096036263_" gradientUnits="userSpaceOnUse" x1="119.8571" y1="188.309" x2="6.5261" y2="54.3241">
			<stop  offset="0" style="stop-color:#FFFFFF;stop-opacity:0"/>
			<stop  offset="1" style="stop-color:#FFFFFF"/>
		</linearGradient>
		<path style="fill:url(#SVGID_00000084501795213373450280000012270987618096036263_);" d="M43.8458,98.3343
			c-0.0705-0.0089-0.1406-0.0186-0.211-0.0278C43.7052,98.3157,43.7755,98.3254,43.8458,98.3343z"/>
		
			<linearGradient id="SVGID_00000142898078340993556150000015404481383599506582_" gradientUnits="userSpaceOnUse" x1="152.7343" y1="146.6866" x2="40.4623" y2="29.1188">
			<stop  offset="0" style="stop-color:#FFFFFF;stop-opacity:0"/>
			<stop  offset="1" style="stop-color:#FFFFFF"/>
		</linearGradient>
		<path style="fill:url(#SVGID_00000142898078340993556150000015404481383599506582_);" d="M98.7196,49.8112
			c-0.0015-0.3893-0.0077-0.7774-0.0181-1.1645c-0.0047-0.1689-0.0112-0.3374-0.0176-0.506
			c-0.0114-0.304-0.0256-0.6073-0.0426-0.9098c-0.0092-0.1645-0.0176-0.3292-0.0285-0.4932
			c-0.0201-0.3049-0.0459-0.6081-0.0712-0.9115c-0.0108-0.1266-0.0181-0.2542-0.0298-0.3806
			c-0.0106-0.1137-0.024-0.2266-0.0354-0.34c-0.0125-0.1256-0.0276-0.2505-0.0412-0.3759c-0.0224-0.2099-0.0438-0.4201-0.069-0.6292
			c-0.0208-0.173-0.0433-0.3454-0.0659-0.5177c-0.0384-0.2915-0.0796-0.5821-0.1231-0.872c-0.024-0.1604-0.047-0.3213-0.0726-0.4812
			c-0.0136-0.0847-0.0299-0.1685-0.0438-0.2531c-0.0547-0.3305-0.1097-0.661-0.1712-0.9892
			c-0.0265-0.1421-0.0562-0.2831-0.0841-0.4247c-0.0579-0.295-0.1177-0.5892-0.1809-0.8822
			c-0.0378-0.1753-0.0767-0.3502-0.1164-0.5248c-0.0631-0.2773-0.129-0.5535-0.1969-0.829
			c-0.0385-0.157-0.0756-0.3145-0.1158-0.4708c-0.1019-0.3975-0.2088-0.7929-0.3204-1.1863
			c-0.0448-0.1577-0.0925-0.3142-0.1389-0.4713c-0.0426-0.1444-0.087-0.288-0.131-0.4319c-0.0364-0.1198-0.0716-0.24-0.109-0.3594
			c-0.0554-0.1767-0.1116-0.3531-0.169-0.529c-0.0418-0.1285-0.0861-0.2559-0.1293-0.3837
			c-0.0456-0.136-0.0906-0.2723-0.1374-0.4079c-0.052-0.1502-0.1021-0.3013-0.1554-0.4509
			c-0.0478-0.134-0.0993-0.2663-0.1484-0.3998c-0.089-0.243-0.1773-0.4865-0.2701-0.7277c-0.0646-0.1675-0.1316-0.3335-0.1979-0.5
			c-0.0944-0.2375-0.1902-0.4742-0.2882-0.7097c-0.0734-0.1761-0.1469-0.3519-0.2222-0.527
			c-0.1084-0.252-0.2199-0.5025-0.3324-0.7523c-0.0862-0.1913-0.1724-0.3826-0.2608-0.5725
			c-0.0687-0.1475-0.1404-0.2934-0.2105-0.4401c-0.0762-0.1597-0.151-0.3202-0.2291-0.4788
			c-0.0849-0.1726-0.1721-0.3439-0.259-0.5154c-0.1085-0.2141-0.2184-0.4274-0.3299-0.6397c-0.092-0.175-0.184-0.3499-0.2781-0.5236
			c-0.1285-0.2377-0.2603-0.4734-0.3927-0.7086c-0.1339-0.238-0.2698-0.4748-0.4077-0.7102
			c-0.1348-0.2303-0.2702-0.4602-0.4086-0.688c-0.106-0.1746-0.2141-0.3478-0.3222-0.5208
			c-0.1197-0.1915-0.2408-0.3821-0.3631-0.5718c-0.1109-0.172-0.2215-0.344-0.3343-0.5145
			c-0.0763-0.1152-0.1552-0.2286-0.2325-0.3431c-0.0743-0.1095-0.1478-0.2197-0.2226-0.3287
			c-0.1696-0.2472-0.3418-0.4924-0.5159-0.7363c-0.0368-0.0515-0.0742-0.1025-0.1111-0.154
			c-0.0969-0.1347-0.193-0.2701-0.2913-0.4038c-0.1275-0.1732-0.2568-0.3454-0.3865-0.5169
			c-0.0952-0.126-0.1917-0.2506-0.288-0.3754c-0.032-0.0414-0.0634-0.0831-0.0954-0.1244
			c-0.1315-0.1692-0.2624-0.3387-0.3959-0.5062c-0.0968-0.1214-0.1964-0.2405-0.2944-0.361
			c-0.0814-0.0994-0.1617-0.1997-0.2435-0.2987c-0.1915-0.2317-0.3857-0.4613-0.5814-0.6893
			c-0.1-0.1166-0.2005-0.2326-0.3015-0.3484c-0.0194-0.0221-0.0384-0.0448-0.0579-0.0669
			c-3.8561-4.3773-9.0116-7.4353-14.7213-8.639c-25.173-5.307-37.574,11.9782-39.9716,15.6597
			c-1.7347,2.6616-2.2629,4.5496-2.4129,6.8704c2.0448-9.2288,11.0452-9.0822,15.5778-6.4445
			c6.0764,3.5988,21.7429,12.8855,24.2477,14.3714c1.4416,0.8554,3.466,1.7176,5.4392,3.3296
			c1.4518,1.186,2.8729,2.7809,4.0078,5.0779c1.6283,3.2981,6.8279,18.4006-1.1227,33.8266
			c-5.2367,10.1602-15.7214,16.6028-27.1317,16.7804c-0.182,0.002-0.3632,0.0074-0.5456,0.0074
			c7.2182,0,14.0681-1.5677,20.2298-4.3861c3.8271-1.7483,7.3885-3.9771,10.609-6.6114c0.39-0.3193,0.7735-0.6461,1.1532-0.9771
			c0.1185-0.1033,0.2349-0.2087,0.3524-0.3131c0.264-0.2346,0.5259-0.4714,0.7848-0.7116c0.1284-0.1192,0.2562-0.239,0.3834-0.3597
			c0.2569-0.2436,0.5107-0.4905,0.7623-0.7395c0.1106-0.1096,0.2223-0.2181,0.3319-0.3287
			c0.3546-0.3579,0.7053-0.7198,1.0488-1.0885c0.0078-0.0084,0.0153-0.0171,0.0231-0.0255
			c0.2705-0.2907,0.5368-0.5852,0.8002-0.8825c0.0916-0.1034,0.1814-0.2086,0.2722-0.3128
			c0.1788-0.2053,0.3568-0.4114,0.5322-0.6198c0.103-0.1224,0.2047-0.2458,0.3065-0.3692c0.1617-0.1959,0.3221-0.393,0.4807-0.5913
			c0.1023-0.1279,0.2041-0.2559,0.305-0.3848c0.1593-0.2034,0.3165-0.4086,0.4726-0.6146c0.0933-0.123,0.1872-0.2454,0.2793-0.3693
			c0.1805-0.2428,0.3577-0.4882,0.5337-0.7345c0.063-0.088,0.1276-0.175,0.19-0.2635c0.2331-0.3307,0.462-0.6647,0.6871-1.0014
			c0.0709-0.1061,0.1394-0.2139,0.2095-0.3207c0.1553-0.2365,0.3098-0.4735,0.4611-0.7128c0.0871-0.1377,0.1723-0.2767,0.258-0.4153
			c0.1319-0.2132,0.2625-0.427,0.3911-0.6423c0.0875-0.1466,0.1742-0.2937,0.2603-0.4413c0.1248-0.2142,0.2478-0.4295,0.3694-0.6457
			c0.0822-0.146,0.1647-0.2919,0.2454-0.4388c0.1287-0.2343,0.2543-0.4705,0.3792-0.7071c0.0684-0.1295,0.1382-0.258,0.2053-0.3881
			c0.1854-0.3589,0.367-0.72,0.5436-1.084c0.0441-0.0909,0.0857-0.1831,0.1292-0.2744c0.1344-0.2814,0.2673-0.5635,0.3964-0.8478
			c0.0677-0.1492,0.1329-0.2997,0.1991-0.4496c0.1018-0.2305,0.2029-0.4614,0.3012-0.6937c0.0688-0.1625,0.136-0.3257,0.2031-0.489
			c0.092-0.2242,0.1825-0.4493,0.2712-0.6752c0.0653-0.1662,0.1304-0.3324,0.1939-0.4995c0.0885-0.2328,0.1743-0.4669,0.2593-0.7015
			c0.0577-0.1591,0.1165-0.3177,0.1726-0.4776c0.1002-0.2855,0.1963-0.5728,0.2912-0.8606c0.036-0.1092,0.0742-0.2174,0.1095-0.3271
			c0.1243-0.386,0.2432-0.7744,0.358-1.1646c0.0458-0.1555,0.0884-0.3123,0.1326-0.4685c0.0703-0.248,0.1401-0.4963,0.2066-0.7459
			c0.047-0.1767,0.0919-0.3544,0.137-0.5318c0.0592-0.2328,0.1171-0.4662,0.1729-0.7003c0.0436-0.183,0.0862-0.3663,0.1278-0.5501
			c0.0532-0.2354,0.104-0.4717,0.1538-0.7083c0.0379-0.1801,0.0762-0.36,0.1122-0.5409c0.0514-0.2591,0.099-0.5194,0.1463-0.78
			c0.0289-0.1588,0.0597-0.317,0.087-0.4764c0.0692-0.4044,0.1337-0.8103,0.1929-1.218c0.0223-0.1532,0.0407-0.3076,0.0616-0.4612
			c0.0366-0.2707,0.073-0.5415,0.1052-0.8136c0.0221-0.1868,0.0413-0.3745,0.0612-0.562c0.0258-0.2422,0.0508-0.4847,0.0731-0.7278
			c0.0179-0.1956,0.0342-0.3915,0.0498-0.5877c0.019-0.2388,0.0359-0.4782,0.0514-0.718c0.0128-0.1972,0.0254-0.3945,0.0358-0.5922
			c0.0131-0.2484,0.0228-0.4977,0.0321-0.7471c0.007-0.1879,0.0156-0.3754,0.0205-0.5638c0.0082-0.3185,0.0115-0.6381,0.0136-0.958
			c0.0007-0.1102,0.004-0.2197,0.004-0.33C98.7217,49.9359,98.7198,49.8737,98.7196,49.8112z"/>
		
			<linearGradient id="SVGID_00000044145466204064246830000007126139299440922515_" gradientUnits="userSpaceOnUse" x1="117.6248" y1="190.1972" x2="42.4125" y2="101.278">
			<stop  offset="0" style="stop-color:#FFFFFF;stop-opacity:0"/>
			<stop  offset="1" style="stop-color:#FFFFFF"/>
		</linearGradient>
		<path style="fill:url(#SVGID_00000044145466204064246830000007126139299440922515_);" d="M39.2485,97.5289
			c-0.0059-0.0013-0.0119-0.0027-0.0177-0.0041C39.2366,97.5262,39.2426,97.5276,39.2485,97.5289z"/>
		
			<linearGradient id="SVGID_00000124851296765730961630000012096573070001571006_" gradientUnits="userSpaceOnUse" x1="121.9559" y1="186.5338" x2="8.6248" y2="52.5489">
			<stop  offset="0" style="stop-color:#FFFFFF;stop-opacity:0"/>
			<stop  offset="1" style="stop-color:#FFFFFF"/>
		</linearGradient>
		<path style="fill:url(#SVGID_00000124851296765730961630000012096573070001571006_);" d="M48.1725,98.6846
			c-0.365-0.0135-0.729-0.0308-1.0919-0.0523C47.4435,98.6537,47.8075,98.6712,48.1725,98.6846z"/>
		
			<linearGradient id="SVGID_00000029015902349957923300000017189691936967427970_" gradientUnits="userSpaceOnUse" x1="118.3463" y1="189.5869" x2="5.0152" y2="55.602">
			<stop  offset="0" style="stop-color:#FFFFFF;stop-opacity:0"/>
			<stop  offset="1" style="stop-color:#FFFFFF"/>
		</linearGradient>
		<path style="fill:url(#SVGID_00000029015902349957923300000017189691936967427970_);" d="M42.1898,98.0965
			c-0.9907-0.1599-1.9716-0.349-2.9413-0.5676C40.2183,97.7473,41.1989,97.937,42.1898,98.0965z"/>
		
			<linearGradient id="SVGID_00000066473828872789149140000007376781788507452827_" gradientUnits="userSpaceOnUse" x1="122.8973" y1="185.7375" x2="9.5662" y2="51.7526">
			<stop  offset="0" style="stop-color:#FFFFFF;stop-opacity:0"/>
			<stop  offset="1" style="stop-color:#FFFFFF"/>
		</linearGradient>
		<path style="fill:url(#SVGID_00000066473828872789149140000007376781788507452827_);" d="M49.9987,98.7217
			c-0.4774,0-0.9527-0.0091-1.4267-0.0228C49.0461,98.7126,49.5213,98.7217,49.9987,98.7217z"/>
		
			<linearGradient id="SVGID_00000108266936817281064210000005761797499933738124_" gradientUnits="userSpaceOnUse" x1="119.4686" y1="188.6376" x2="6.1375" y2="54.6527">
			<stop  offset="0" style="stop-color:#FFFFFF;stop-opacity:0"/>
			<stop  offset="1" style="stop-color:#FFFFFF"/>
		</linearGradient>
		<path style="fill:url(#SVGID_00000108266936817281064210000005761797499933738124_);" d="M43.6348,98.3065
			c-0.4366-0.0572-0.8717-0.1195-1.3046-0.1881C42.7632,98.1869,43.1981,98.2495,43.6348,98.3065z"/>
		
			<linearGradient id="SVGID_00000000195599175065189230000003619577484471927711_" gradientUnits="userSpaceOnUse" x1="120.6824" y1="187.611" x2="7.3513" y2="53.6261">
			<stop  offset="0" style="stop-color:#FFFFFF;stop-opacity:0"/>
			<stop  offset="1" style="stop-color:#FFFFFF"/>
		</linearGradient>
		<path style="fill:url(#SVGID_00000000195599175065189230000003619577484471927711_);" d="M46.7237,98.611
			c-0.9672-0.0645-1.9268-0.1565-2.8778-0.2766C44.7968,98.4541,45.7563,98.5468,46.7237,98.611z"/>
	</g>
</g>
</svg>
